<svg xmlns="http://www.w3.org/2000/svg" viewBox="0 0 261.261 261.26"><defs><style>.cls-1{fill:#666;}.cls-2{fill:#ccc;}.cls-3{fill:#39b54a;}</style></defs><title>breast-clock</title><g id="Layer_2" data-name="Layer 2"><g id="outline"><path class="cls-1" d="M130.63,261.26C58.6,261.26,0,202.66,0,130.629S58.6,0,130.63,0,261.261,58.6,261.261,130.629A130.779,130.779,0,0,1,130.63,261.26Zm0-251.26A120.63,120.63,0,1,0,251.261,130.629,120.766,120.766,0,0,0,130.63,10Z"/></g><g id="nipples"><path class="cls-2" d="M161.606,133.351a31.77,31.77,0,0,0-4.129-22.328c-3.475-5.879-11.6-12.8-17.7-14.569-12.007-3.478-23.659.323-32.157,9.492a32.711,32.711,0,0,0,23.165,54.936,30.07,30.07,0,0,0,18.55-6.469A34.4,34.4,0,0,0,161.606,133.351Zm-24.454,5.724a10.311,10.311,0,0,1-6.361,2.218,11.217,11.217,0,0,1-7.943-18.838,10.635,10.635,0,0,1,11.026-3.255,12.715,12.715,0,0,1,6.07,5,10.894,10.894,0,0,1,1.416,7.656A11.794,11.794,0,0,1,137.152,139.075Z"/></g><g id="markings"><path class="cls-3" d="M127.192,32.593H124.12V20.566l-3,1.157V19.171l5.742-2.347h.325Z"/><path class="cls-3" d="M140.938,32.593h-9.279V30.43l4.262-5.418q.454-.627.757-1.141a8.218,8.218,0,0,0,.486-.946,4.251,4.251,0,0,0,.26-.8,3.582,3.582,0,0,0,.075-.714,3.151,3.151,0,0,0-.362-1.644,1.152,1.152,0,0,0-1.043-.595,1.263,1.263,0,0,0-.714.2,1.635,1.635,0,0,0-.509.552,2.723,2.723,0,0,0-.3.838,5.388,5.388,0,0,0-.1,1.049H131.4a6.043,6.043,0,0,1,.33-2.012,4.989,4.989,0,0,1,.941-1.644,4.43,4.43,0,0,1,1.492-1.114,4.643,4.643,0,0,1,1.984-.411,5.452,5.452,0,0,1,1.909.309,3.738,3.738,0,0,1,1.39.881,3.678,3.678,0,0,1,.849,1.406,6.028,6.028,0,0,1,.081,3.4,7.532,7.532,0,0,1-.589,1.477,11.629,11.629,0,0,1-.936,1.487q-.552.752-1.244,1.574l-2.022,2.888h5.354Z"/><path class="cls-3" d="M185.75,46.782h-3.072V34.756l-3,1.157V33.361l5.742-2.347h.325Z"/><path class="cls-3" d="M227.057,85.548h-9.279V83.385l4.262-5.418q.454-.627.757-1.141a8.218,8.218,0,0,0,.486-.946,4.251,4.251,0,0,0,.26-.8,3.582,3.582,0,0,0,.075-.714,3.151,3.151,0,0,0-.362-1.644,1.152,1.152,0,0,0-1.043-.595,1.263,1.263,0,0,0-.714.2,1.635,1.635,0,0,0-.509.552,2.723,2.723,0,0,0-.3.838,5.388,5.388,0,0,0-.1,1.049h-3.072a6.043,6.043,0,0,1,.33-2.012,4.989,4.989,0,0,1,.941-1.644A4.43,4.43,0,0,1,220.281,70a4.643,4.643,0,0,1,1.984-.411,5.452,5.452,0,0,1,1.909.309,3.738,3.738,0,0,1,1.39.881,3.678,3.678,0,0,1,.849,1.406,6.028,6.028,0,0,1,.081,3.4,7.532,7.532,0,0,1-.589,1.477,11.629,11.629,0,0,1-.936,1.487q-.552.752-1.244,1.574L221.7,83.007h5.354Z"/><path class="cls-3" d="M234.691,129.236h1.481a1.382,1.382,0,0,0,1.238-.59,2.781,2.781,0,0,0,.395-1.573,3.218,3.218,0,0,0-.092-.795,1.842,1.842,0,0,0-.281-.627,1.373,1.373,0,0,0-.47-.417,1.417,1.417,0,0,0-1.206-.032,1.3,1.3,0,0,0-.46.346,1.79,1.79,0,0,0-.313.552,2.135,2.135,0,0,0-.119.735H231.8a4.384,4.384,0,0,1,.346-1.768,4.05,4.05,0,0,1,.941-1.353,4.254,4.254,0,0,1,1.4-.865,4.824,4.824,0,0,1,1.736-.308,5.911,5.911,0,0,1,1.882.286,3.979,3.979,0,0,1,1.465.854,3.9,3.9,0,0,1,.952,1.406,5.139,5.139,0,0,1,.341,1.941,3.808,3.808,0,0,1-.53,1.941,4.064,4.064,0,0,1-.633.811,3.6,3.6,0,0,1-.859.633,3.37,3.37,0,0,1,1.66,1.428,4.454,4.454,0,0,1,.546,2.25,4.918,4.918,0,0,1-.373,1.968,4.168,4.168,0,0,1-1.022,1.455,4.42,4.42,0,0,1-1.535.9,5.807,5.807,0,0,1-1.915.308,5.336,5.336,0,0,1-1.682-.27,4.1,4.1,0,0,1-1.449-.833,4.193,4.193,0,0,1-1.021-1.411,4.8,4.8,0,0,1-.39-2.018h3.061a2.537,2.537,0,0,0,.119.795,2.063,2.063,0,0,0,.324.628,1.5,1.5,0,0,0,.492.416,1.34,1.34,0,0,0,.633.151,1.627,1.627,0,0,0,.714-.151,1.505,1.505,0,0,0,.535-.433,2.027,2.027,0,0,0,.341-.676,3.062,3.062,0,0,0,.119-.882,2.689,2.689,0,0,0-.481-1.79,1.7,1.7,0,0,0-1.347-.546h-1.481Z"/><path class="cls-3" d="M225.846,185.511h1.341v2.541h-1.341v3.407h-3.061v-3.407h-5.213l-.141-1.979,5.343-10.361h3.071Zm-5.44,0h2.38v-5.267l-.065.118Z"/><path class="cls-3" d="M179.325,222.481l.779-8h7.624V217.1h-5.115l-.281,3.375c.087-.058.191-.121.313-.189a3.431,3.431,0,0,1,.422-.2,3.563,3.563,0,0,1,.514-.151,2.779,2.779,0,0,1,.579-.06,4.037,4.037,0,0,1,1.741.357,3.385,3.385,0,0,1,1.271,1.038,4.811,4.811,0,0,1,.778,1.666,8.623,8.623,0,0,1,.266,2.238,7.027,7.027,0,0,1-.281,2,4.925,4.925,0,0,1-.854,1.677,4.22,4.22,0,0,1-1.438,1.157,4.5,4.5,0,0,1-2.033.432,4.807,4.807,0,0,1-1.7-.308,4.418,4.418,0,0,1-2.5-2.353,4.752,4.752,0,0,1-.4-1.946h3.028a2.855,2.855,0,0,0,.486,1.524,1.276,1.276,0,0,0,1.061.541,1.192,1.192,0,0,0,.735-.228,1.672,1.672,0,0,0,.492-.616,3.233,3.233,0,0,0,.271-.919,7.641,7.641,0,0,0,.081-1.146,5.4,5.4,0,0,0-.108-1.125,2.541,2.541,0,0,0-.341-.865,1.681,1.681,0,0,0-.584-.557,1.663,1.663,0,0,0-.838-.2,1.941,1.941,0,0,0-.568.075,1.652,1.652,0,0,0-.422.2,1.413,1.413,0,0,0-.308.275,3.762,3.762,0,0,0-.238.319Z"/><path class="cls-3" d="M133.356,228.505v2.6H133.2a4.408,4.408,0,0,0-1.578.265,3.259,3.259,0,0,0-1.185.769,3.954,3.954,0,0,0-.8,1.222,5.907,5.907,0,0,0-.416,1.628,3.332,3.332,0,0,1,1.07-.816,3.149,3.149,0,0,1,1.385-.3,3.1,3.1,0,0,1,1.644.428,3.617,3.617,0,0,1,1.174,1.157,5.46,5.46,0,0,1,.7,1.7,8.9,8.9,0,0,1,.232,2.065,6.825,6.825,0,0,1-.324,2.136,5.26,5.26,0,0,1-.92,1.715,4.235,4.235,0,0,1-3.353,1.557,4.21,4.21,0,0,1-1.968-.454,4.326,4.326,0,0,1-1.493-1.281,6.067,6.067,0,0,1-.946-1.984,9.3,9.3,0,0,1-.33-2.553v-1.211a12.689,12.689,0,0,1,.455-3.5,8.136,8.136,0,0,1,1.324-2.731,6.037,6.037,0,0,1,2.147-1.773,6.485,6.485,0,0,1,2.92-.633Zm-2.629,7.9a1.382,1.382,0,0,0-.979.367,2.264,2.264,0,0,0-.589.908v1.1a5.411,5.411,0,0,0,.443,2.487,1.319,1.319,0,0,0,1.168.822,1.144,1.144,0,0,0,.67-.211,1.717,1.717,0,0,0,.514-.59,3.279,3.279,0,0,0,.325-.9,5.348,5.348,0,0,0,.113-1.136,5.219,5.219,0,0,0-.119-1.151,3.178,3.178,0,0,0-.341-.9,1.8,1.8,0,0,0-.529-.589A1.176,1.176,0,0,0,130.728,236.4Z"/><path class="cls-3" d="M82.336,216.241l-4.975,13.984H74.127l5-13.205H72.808v-2.542h9.528Z"/><path class="cls-3" d="M43.159,179.9a4.157,4.157,0,0,1-.486,2.033,3.778,3.778,0,0,1-1.342,1.417,4.055,4.055,0,0,1,1.536,1.52,4.452,4.452,0,0,1,.563,2.276,5.227,5.227,0,0,1-.341,1.969,4,4,0,0,1-.94,1.417,3.882,3.882,0,0,1-1.428.859,5.828,5.828,0,0,1-3.607,0,3.885,3.885,0,0,1-2.4-2.276,5.148,5.148,0,0,1-.347-1.969,4.484,4.484,0,0,1,.563-2.282,3.954,3.954,0,0,1,1.547-1.514,3.744,3.744,0,0,1-1.352-1.417,4.147,4.147,0,0,1-.487-2.033,5.288,5.288,0,0,1,.313-1.893,3.788,3.788,0,0,1,.882-1.379,3.746,3.746,0,0,1,1.352-.844,5.311,5.311,0,0,1,3.439,0,3.694,3.694,0,0,1,1.347.844,3.828,3.828,0,0,1,.876,1.379A5.288,5.288,0,0,1,43.159,179.9Zm-2.8,7.009a2.979,2.979,0,0,0-.39-1.645,1.266,1.266,0,0,0-2.146,0,2.944,2.944,0,0,0-.4,1.645,2.913,2.913,0,0,0,.4,1.638,1.248,1.248,0,0,0,1.1.59,1.19,1.19,0,0,0,1.065-.59A3.057,3.057,0,0,0,40.358,186.907Zm-.249-6.847a3.107,3.107,0,0,0-.3-1.471.975.975,0,0,0-.913-.552.963.963,0,0,0-.887.535,3.041,3.041,0,0,0-.3,1.487,3.183,3.183,0,0,0,.3,1.5.972.972,0,0,0,.908.568.952.952,0,0,0,.9-.568A3.291,3.291,0,0,0,40.109,180.06Z"/><path class="cls-3" d="M22.254,136.027a3.7,3.7,0,0,0,2.73-.919,4.332,4.332,0,0,0,1.1-2.693,3.673,3.673,0,0,1-.984.725,2.523,2.523,0,0,1-1.146.271,3.387,3.387,0,0,1-1.665-.4,3.51,3.51,0,0,1-1.211-1.108,5.226,5.226,0,0,1-.736-1.682,8.547,8.547,0,0,1-.248-2.109,7.154,7.154,0,0,1,.318-2.157,5.581,5.581,0,0,1,.909-1.769,4.374,4.374,0,0,1,1.433-1.2,3.978,3.978,0,0,1,1.882-.443,3.833,3.833,0,0,1,1.86.459,4.228,4.228,0,0,1,1.438,1.3,6.552,6.552,0,0,1,.925,2.027,9.819,9.819,0,0,1,.33,2.634v1.1a13.416,13.416,0,0,1-.433,3.531,7.8,7.8,0,0,1-1.3,2.714,5.8,5.8,0,0,1-2.158,1.741,6.962,6.962,0,0,1-3.012.611h-.194v-2.639Zm2.477-5.019a1.145,1.145,0,0,0,.821-.346,2.542,2.542,0,0,0,.573-.865v-1.406a7.843,7.843,0,0,0-.118-1.454,3.9,3.9,0,0,0-.33-1.033,1.729,1.729,0,0,0-.487-.616.954.954,0,0,0-.578-.206.9.9,0,0,0-.633.255,1.994,1.994,0,0,0-.46.67,4.271,4.271,0,0,0-.281.957,6.331,6.331,0,0,0-.1,1.114,6.622,6.622,0,0,0,.092,1.136,3.514,3.514,0,0,0,.286.93,1.741,1.741,0,0,0,.5.633A1.135,1.135,0,0,0,24.73,131.008Z"/><path class="cls-3" d="M35.471,85.548H32.4V73.522l-3,1.157V72.127l5.742-2.347h.325Z"/><path class="cls-3" d="M49.086,79.038a12.054,12.054,0,0,1-.335,3.044,6.091,6.091,0,0,1-.94,2.087,3.776,3.776,0,0,1-1.444,1.206,4.576,4.576,0,0,1-3.693,0,3.754,3.754,0,0,1-1.449-1.206,6.15,6.15,0,0,1-.946-2.087,11.857,11.857,0,0,1-.341-3.044V76.291a12,12,0,0,1,.335-3.034,6.073,6.073,0,0,1,.941-2.087,3.719,3.719,0,0,1,1.443-1.2,4.629,4.629,0,0,1,3.693,0,3.708,3.708,0,0,1,1.449,1.2,6.131,6.131,0,0,1,.946,2.087,11.808,11.808,0,0,1,.341,3.034Zm-3.071-3.19a11.817,11.817,0,0,0-.108-1.747,4.581,4.581,0,0,0-.3-1.146,1.472,1.472,0,0,0-.476-.633,1.11,1.11,0,0,0-1.255,0,1.472,1.472,0,0,0-.476.633,4.581,4.581,0,0,0-.3,1.146,11.817,11.817,0,0,0-.108,1.747v3.612a12.137,12.137,0,0,0,.108,1.768A4.5,4.5,0,0,0,43.4,82.39a1.5,1.5,0,0,0,.48.638,1.1,1.1,0,0,0,.639.195,1.055,1.055,0,0,0,.622-.195,1.491,1.491,0,0,0,.47-.638,4.533,4.533,0,0,0,.3-1.163,12.821,12.821,0,0,0,.1-1.768Z"/><path class="cls-3" d="M74.236,46.782H71.164V34.755l-3,1.157V33.36l5.742-2.347h.325Z"/><path class="cls-3" d="M85.44,46.782H82.368V34.755l-3,1.157V33.36l5.742-2.347h.325Z"/><path class="cls-3" d="M133.036,130.68c.021-.078.04-.155.053-.235a2.447,2.447,0,0,0,.027-.269c0-.047.014-.092.014-.14V41.665a2.5,2.5,0,0,0-5,0V125.7L93.615,105.777a2.5,2.5,0,1,0-2.5,4.33L129.381,132.2c.029.017.061.022.091.037a2.466,2.466,0,0,0,.422.174c.052.016.1.036.156.048a2.489,2.489,0,0,0,.573.074h.009a2.484,2.484,0,0,0,.585-.076c.05-.012.1-.03.146-.045a2.468,2.468,0,0,0,.41-.166c.051-.026.1-.052.15-.081a2.492,2.492,0,0,0,.418-.315c.016-.015.035-.026.051-.042a2.505,2.505,0,0,0,.366-.474c.011-.019.028-.032.039-.051.024-.041.036-.085.057-.127a2.458,2.458,0,0,0,.112-.248C132.994,130.833,133.016,130.757,133.036,130.68Z"/></g></g></svg>