<svg xmlns="http://www.w3.org/2000/svg" viewBox="0 0 475.09 360.374"><defs><style>.cls-1{fill:#666;}.cls-2{fill:#ccc;}</style></defs><title>breast-diagram</title><g id="Layer_2" data-name="Layer 2"><g id="outline"><path class="cls-1" d="M196.223,253.844a109.677,109.677,0,0,1-20.06,13.242c-36.559,18.946-80.464,19.9-114.58,2.485A98.508,98.508,0,0,1,49.4,262.208a5.007,5.007,0,0,0-2.441-1.783c-23.948-18.156-36.94-46.293-36.958-80.9C9.985,151.9,22.48,125.411,35.709,97.365,38.5,91.447,41.387,85.327,44.2,79.119,51.908,62.066,57.5,42.164,60.822,19.967a5,5,0,0,0-9.891-1.479C47.748,39.773,42.416,58.786,35.084,75q-1.737,3.841-3.511,7.639C29.087,53.529,22.99,17.7,19.725,3.854A5,5,0,1,0,9.992,6.149c3.881,16.457,11.854,64.621,12.624,94.2a4.994,4.994,0,0,0,.146,1.054C10.585,127.463-.014,152.519,0,179.534c.02,37.841,14.323,68.687,40.688,88.709l.359,3.392c4.105,38.806,6.818,64.443,6.818,83.74a5,5,0,0,0,10,0c0-18.991-2.51-43.515-6.36-79.932,1.8,1.051,3.64,2.07,5.531,3.036a127.919,127.919,0,0,0,58.113,13.5,143.285,143.285,0,0,0,65.615-16.008A119.637,119.637,0,0,0,202.652,261.5a5,5,0,0,0-6.43-7.658Z"/><path class="cls-1" d="M475.09,179.534c.014-27.015-10.585-52.071-22.762-78.133a4.993,4.993,0,0,0,.146-1.054c.77-29.567,8.743-77.736,12.624-94.2a5,5,0,1,0-9.732-2.295C452.1,17.7,446,53.533,443.517,82.636q-1.766-3.8-3.511-7.639c-7.332-16.212-12.664-35.225-15.848-56.51a5,5,0,0,0-9.891,1.479c3.32,22.2,8.914,42.1,16.627,59.151,2.809,6.209,5.7,12.328,8.486,18.246,13.229,28.046,25.724,54.537,25.709,82.163-.018,34.6-13.01,62.741-36.958,80.9a5,5,0,0,0-2.441,1.784,98.493,98.493,0,0,1-12.184,7.363c-34.116,17.412-78.021,16.46-114.58-2.485a109.677,109.677,0,0,1-20.06-13.242,5,5,0,0,0-6.43,7.658,119.637,119.637,0,0,0,21.888,14.463,143.248,143.248,0,0,0,65.615,16.008,127.96,127.96,0,0,0,58.113-13.5c1.892-.966,3.729-1.985,5.532-3.037-3.851,36.416-6.361,60.942-6.361,79.933a5,5,0,0,0,10,0c0-19.3,2.714-44.95,6.823-83.772l.355-3.361C460.767,248.219,475.07,217.374,475.09,179.534Z"/></g><g id="nipples"><path class="cls-2" d="M112.377,161.037c-5.228-2.509-14.975-2.741-20.919-.853a29.012,29.012,0,0,0-16.4,12.69,31.409,31.409,0,0,0-4.459,21.81,27.459,27.459,0,0,0,8.694,15.692,29.87,29.87,0,0,0,49.2-23.308C128.288,175.654,122.669,165.975,112.377,161.037Zm-10.155,37.445a10.487,10.487,0,0,1-11.015-1.45,9.416,9.416,0,0,1-2.981-5.381,10.77,10.77,0,0,1,1.529-7.479,9.948,9.948,0,0,1,5.623-4.351,11.611,11.611,0,0,1,7.173.293,9.711,9.711,0,0,1,5.527,8.926A10.487,10.487,0,0,1,102.222,198.482Z"/><path class="cls-2" d="M346.595,187.067a29.87,29.87,0,0,0,49.2,23.308,27.459,27.459,0,0,0,8.694-15.692,31.409,31.409,0,0,0-4.459-21.81,29.012,29.012,0,0,0-16.4-12.69c-5.944-1.888-15.691-1.655-20.919.853C352.421,165.975,346.8,175.654,346.595,187.067Zm20.417,1.973a9.711,9.711,0,0,1,5.527-8.926,11.611,11.611,0,0,1,7.173-.293,9.948,9.948,0,0,1,5.623,4.351,10.77,10.77,0,0,1,1.529,7.479,9.416,9.416,0,0,1-2.981,5.381,10.242,10.242,0,0,1-16.871-7.992Z"/></g></g></svg>