<svg xmlns="http://www.w3.org/2000/svg" viewBox="0 0 475.09 360.374"><defs><style>.cls-1{fill:#666;}.cls-2{fill:#ccc;}.cls-3{fill:#009245;}</style></defs><title>breast-quadrants</title><g id="Layer_2" data-name="Layer 2"><g id="outline"><path class="cls-1" d="M196.223,253.844a109.677,109.677,0,0,1-20.06,13.242c-36.559,18.946-80.464,19.9-114.58,2.485A98.508,98.508,0,0,1,49.4,262.208a5.007,5.007,0,0,0-2.441-1.783c-23.948-18.156-36.94-46.293-36.958-80.9C9.985,151.9,22.48,125.411,35.709,97.365,38.5,91.447,41.387,85.327,44.2,79.119,51.908,62.066,57.5,42.164,60.822,19.967a5,5,0,0,0-9.891-1.479C47.748,39.773,42.416,58.786,35.084,75q-1.737,3.841-3.511,7.639C29.087,53.529,22.99,17.7,19.725,3.854A5,5,0,1,0,9.992,6.149c3.881,16.457,11.854,64.621,12.624,94.2a4.994,4.994,0,0,0,.146,1.054C10.585,127.463-.014,152.519,0,179.534c.02,37.841,14.323,68.687,40.688,88.709l.359,3.392c4.105,38.806,6.818,64.443,6.818,83.74a5,5,0,0,0,10,0c0-18.991-2.51-43.515-6.36-79.932,1.8,1.051,3.64,2.07,5.531,3.036a127.919,127.919,0,0,0,58.113,13.5,143.285,143.285,0,0,0,65.615-16.008A119.637,119.637,0,0,0,202.652,261.5a5,5,0,0,0-6.43-7.658Z"/><path class="cls-1" d="M475.09,179.534c.014-27.015-10.585-52.071-22.762-78.133a4.993,4.993,0,0,0,.146-1.054c.77-29.567,8.743-77.736,12.624-94.2a5,5,0,1,0-9.732-2.295C452.1,17.7,446,53.533,443.517,82.636q-1.766-3.8-3.511-7.639c-7.332-16.212-12.664-35.225-15.848-56.51a5,5,0,0,0-9.891,1.479c3.32,22.2,8.914,42.1,16.627,59.151,2.809,6.209,5.7,12.328,8.486,18.246,13.229,28.046,25.724,54.537,25.709,82.163-.018,34.6-13.01,62.741-36.958,80.9a5,5,0,0,0-2.441,1.784,98.493,98.493,0,0,1-12.184,7.363c-34.116,17.412-78.021,16.46-114.58-2.485a109.677,109.677,0,0,1-20.06-13.242,5,5,0,0,0-6.43,7.658,119.637,119.637,0,0,0,21.888,14.463,143.248,143.248,0,0,0,65.615,16.008,127.96,127.96,0,0,0,58.113-13.5c1.892-.966,3.729-1.985,5.532-3.037-3.851,36.416-6.361,60.942-6.361,79.933a5,5,0,0,0,10,0c0-19.3,2.714-44.95,6.823-83.772l.355-3.361C460.767,248.219,475.07,217.374,475.09,179.534Z"/></g><g id="nipples"><path class="cls-2" d="M112.377,161.037c-5.228-2.509-14.975-2.741-20.919-.853a29.012,29.012,0,0,0-16.4,12.69,31.409,31.409,0,0,0-4.459,21.81,27.459,27.459,0,0,0,8.694,15.692,29.87,29.87,0,0,0,49.2-23.308C128.288,175.654,122.669,165.975,112.377,161.037Zm-10.155,37.445a10.487,10.487,0,0,1-11.015-1.45,9.416,9.416,0,0,1-2.981-5.381,10.77,10.77,0,0,1,1.529-7.479,9.948,9.948,0,0,1,5.623-4.351,11.611,11.611,0,0,1,7.173.293,9.711,9.711,0,0,1,5.527,8.926A10.487,10.487,0,0,1,102.222,198.482Z"/><path class="cls-2" d="M346.595,187.067a29.87,29.87,0,0,0,49.2,23.308,27.459,27.459,0,0,0,8.694-15.692,31.409,31.409,0,0,0-4.459-21.81,29.012,29.012,0,0,0-16.4-12.69c-5.944-1.888-15.691-1.655-20.919.853C352.421,165.975,346.8,175.654,346.595,187.067Zm20.417,1.973a9.711,9.711,0,0,1,5.527-8.926,11.611,11.611,0,0,1,7.173-.293,9.948,9.948,0,0,1,5.623,4.351,10.77,10.77,0,0,1,1.529,7.479,9.416,9.416,0,0,1-2.981,5.381,10.242,10.242,0,0,1-16.871-7.992Z"/></g><g id="markings"><path class="cls-3" d="M115.807,89.522a2.5,2.5,0,0,1-2.386-3.247q.908-2.9,1.856-5.75a2.5,2.5,0,1,1,4.744,1.579q-.933,2.8-1.829,5.665A2.5,2.5,0,0,1,115.807,89.522Z"/><path class="cls-3" d="M106.1,258.024a2.5,2.5,0,0,1-2.359-1.674,115.4,115.4,0,0,1-3.444-12,2.5,2.5,0,0,1,4.871-1.13,110.462,110.462,0,0,0,3.292,11.478,2.5,2.5,0,0,1-2.359,3.327Zm-5.627-23.745A2.5,2.5,0,0,1,98,232.146c-.581-3.914-1.057-8.05-1.416-12.294a2.5,2.5,0,0,1,4.982-.421c.35,4.14.814,8.171,1.38,11.981a2.5,2.5,0,0,1-2.106,2.84A2.577,2.577,0,0,1,100.472,234.28Zm-2.1-24.337a2.5,2.5,0,0,1-2.5-2.418c-.1-2.935-.146-5.974-.146-9.031q0-1.641.019-3.3a2.528,2.528,0,0,1,2.528-2.472,2.5,2.5,0,0,1,2.472,2.528q-.018,1.627-.019,3.241c0,3,.048,5.986.143,8.867a2.5,2.5,0,0,1-2.417,2.581Zm.253-24.431-.126,0a2.5,2.5,0,0,1-2.373-2.621c.2-4.02.479-8.151.828-12.279a2.5,2.5,0,0,1,4.982.422c-.345,4.07-.619,8.143-.816,12.105A2.5,2.5,0,0,1,98.624,185.512Zm2.053-24.353a2.5,2.5,0,0,1-2.486-2.792c.472-4.025,1.018-8.126,1.622-12.19a2.5,2.5,0,0,1,4.945.734c-.6,4.014-1.135,8.064-1.6,12.039A2.5,2.5,0,0,1,100.676,161.159Zm3.588-24.173a2.556,2.556,0,0,1-.444-.04,2.5,2.5,0,0,1-2.02-2.9c.723-4.028,1.514-8.088,2.351-12.068a2.5,2.5,0,1,1,4.893,1.029c-.827,3.931-1.607,7.942-2.321,11.921A2.5,2.5,0,0,1,104.264,136.986Zm5.03-23.913a2.5,2.5,0,0,1-2.432-3.089c.97-4,2.007-8.008,3.083-11.905a2.5,2.5,0,1,1,4.819,1.331c-1.062,3.847-2.086,7.8-3.043,11.751A2.5,2.5,0,0,1,109.295,113.073Z"/><path class="cls-3" d="M114.068,274.352a2.5,2.5,0,0,1-2.07-1.095,60.706,60.706,0,0,1-3.234-5.352,2.5,2.5,0,1,1,4.4-2.368,55.443,55.443,0,0,0,2.964,4.909,2.5,2.5,0,0,1-2.065,3.906Z"/><path class="cls-3" d="M31.175,160.289a2.493,2.493,0,0,1-1.81-.774c-1.4-1.468-2.783-3.005-4.11-4.571a2.5,2.5,0,1,1,3.813-3.233c1.265,1.491,2.582,2.956,3.915,4.353a2.5,2.5,0,0,1-1.809,4.226Z"/><path class="cls-3" d="M115.838,192.814c-4.051,0-8.011-.142-11.836-.418a2.5,2.5,0,0,1,.361-4.987c3.706.269,7.544.405,11.41.406a2.529,2.529,0,0,1,2.533,2.5A2.472,2.472,0,0,1,115.838,192.814Zm11.659-.392a2.5,2.5,0,0,1-.162-4.995c3.755-.247,7.614-.617,11.47-1.1a2.5,2.5,0,1,1,.622,4.961c-3.953.5-7.911.875-11.764,1.129C127.607,192.42,127.551,192.422,127.5,192.422Zm-34.9-1.328a2.474,2.474,0,0,1-.386-.03c-3.971-.616-7.892-1.406-11.655-2.347a2.5,2.5,0,1,1,1.213-4.851c3.617.9,7.388,1.664,11.209,2.257a2.5,2.5,0,0,1-.38,4.971Zm58.047-1.556a2.5,2.5,0,0,1-.442-4.96c3.731-.675,7.532-1.463,11.3-2.344a2.5,2.5,0,0,1,1.138,4.869c-3.848.9-7.733,1.7-11.546,2.395A2.509,2.509,0,0,1,150.642,189.538ZM70,185.4a2.5,2.5,0,0,1-.848-.148,109.069,109.069,0,0,1-10.99-4.651,2.5,2.5,0,0,1,2.2-4.489,103.936,103.936,0,0,0,10.484,4.437A2.5,2.5,0,0,1,70,185.4Zm103.355-1.167a2.5,2.5,0,0,1-.686-4.9c3.71-1.061,7.417-2.219,11.019-3.442a2.5,2.5,0,0,1,1.608,4.734c-3.678,1.25-7.464,2.432-11.253,3.515A2.509,2.509,0,0,1,173.358,184.237Zm-124.25-9.106a2.487,2.487,0,0,1-1.352-.4,100.846,100.846,0,0,1-9.649-7.063,2.5,2.5,0,1,1,3.188-3.852,95.779,95.779,0,0,0,9.168,6.711,2.5,2.5,0,0,1-1.356,4.6Z"/><path class="cls-3" d="M195.438,176.723a2.5,2.5,0,0,1-.931-4.821c1.875-.751,3.711-1.52,5.458-2.285a2.5,2.5,0,0,1,2.006,4.58c-1.795.786-3.681,1.576-5.6,2.346A2.494,2.494,0,0,1,195.438,176.723Z"/><path class="cls-3" d="M359.443,89.522a2.5,2.5,0,0,1-2.385-1.754q-.9-2.859-1.829-5.664a2.5,2.5,0,0,1,4.744-1.579q.948,2.847,1.856,5.751a2.5,2.5,0,0,1-2.387,3.247Z"/><path class="cls-3" d="M369.151,258.025a2.5,2.5,0,0,1-2.359-3.327,110.344,110.344,0,0,0,3.292-11.478,2.5,2.5,0,1,1,4.871,1.13,115.424,115.424,0,0,1-3.444,12A2.5,2.5,0,0,1,369.151,258.025Zm5.628-23.745a2.582,2.582,0,0,1-.37-.027,2.5,2.5,0,0,1-2.105-2.84c.564-3.8,1.028-7.836,1.379-11.981a2.5,2.5,0,1,1,4.982.421c-.359,4.25-.836,8.386-1.416,12.294A2.5,2.5,0,0,1,374.779,234.28Zm2.1-24.336H376.8a2.5,2.5,0,0,1-2.418-2.58c.095-2.9.143-5.884.143-8.867q0-1.614-.018-3.243a2.5,2.5,0,0,1,2.474-2.527h.027a2.5,2.5,0,0,1,2.5,2.473q.018,1.656.018,3.3c0,3.037-.049,6.074-.145,9.029A2.5,2.5,0,0,1,376.881,209.943Zm-.255-24.431a2.5,2.5,0,0,1-2.5-2.376c-.2-3.972-.472-8.044-.815-12.105a2.5,2.5,0,1,1,4.982-.422c.349,4.119.627,8.25.827,12.279a2.5,2.5,0,0,1-2.373,2.621Zm-2.053-24.352a2.5,2.5,0,0,1-2.48-2.21c-.464-3.964-1-8.014-1.6-12.038a2.5,2.5,0,0,1,4.945-.734c.605,4.074,1.15,8.176,1.621,12.191a2.505,2.505,0,0,1-2.486,2.791Zm-3.588-24.174a2.5,2.5,0,0,1-2.458-2.06c-.711-3.969-1.492-7.979-2.32-11.921a2.5,2.5,0,1,1,4.893-1.028c.839,3.99,1.629,8.05,2.35,12.068a2.5,2.5,0,0,1-2.02,2.9A2.556,2.556,0,0,1,370.985,136.986Zm-5.029-23.913a2.5,2.5,0,0,1-2.428-1.912c-.959-3.96-1.983-7.914-3.043-11.751a2.5,2.5,0,0,1,4.82-1.331c1.073,3.888,2.11,7.894,3.082,11.905a2.5,2.5,0,0,1-2.432,3.089Z"/><path class="cls-3" d="M361.183,274.352a2.5,2.5,0,0,1-2.065-3.906,55.506,55.506,0,0,0,2.964-4.909,2.5,2.5,0,0,1,4.4,2.368,60.816,60.816,0,0,1-3.233,5.352A2.5,2.5,0,0,1,361.183,274.352Z"/><path class="cls-3" d="M444.076,160.289a2.5,2.5,0,0,1-1.81-4.225c1.334-1.4,2.651-2.864,3.914-4.354a2.5,2.5,0,0,1,3.814,3.233c-1.326,1.564-2.709,3.1-4.109,4.57A2.494,2.494,0,0,1,444.076,160.289Z"/><path class="cls-3" d="M359.478,192.814a2.528,2.528,0,0,1-2.533-2.5,2.473,2.473,0,0,1,2.468-2.5c3.93,0,7.769-.136,11.475-.406a2.5,2.5,0,0,1,.361,4.987C367.423,192.674,363.464,192.814,359.478,192.814Zm-11.723-.392c-.056,0-.111,0-.167-.005-3.854-.253-7.811-.633-11.764-1.129a2.5,2.5,0,0,1,.623-4.961c3.854.483,7.714.854,11.469,1.1a2.5,2.5,0,0,1-.161,4.995Zm34.9-1.328a2.5,2.5,0,0,1-.381-4.971c3.82-.593,7.592-1.353,11.209-2.257a2.5,2.5,0,0,1,1.213,4.851c-3.764.941-7.685,1.731-11.654,2.347A2.485,2.485,0,0,1,382.656,191.094Zm-58.048-1.555a2.509,2.509,0,0,1-.448-.041c-3.812-.69-7.7-1.5-11.546-2.395a2.5,2.5,0,1,1,1.137-4.869c3.769.88,7.569,1.669,11.3,2.344a2.5,2.5,0,0,1-.442,4.96Zm80.64-4.135a2.5,2.5,0,0,1-.848-4.853,103.984,103.984,0,0,0,10.484-4.437,2.5,2.5,0,0,1,2.2,4.489,109.117,109.117,0,0,1-10.99,4.651A2.505,2.505,0,0,1,405.248,185.4Zm-103.356-1.167a2.514,2.514,0,0,1-.688-.1c-3.785-1.082-7.571-2.265-11.252-3.515a2.5,2.5,0,1,1,1.607-4.734c3.6,1.224,7.312,2.382,11.02,3.442a2.5,2.5,0,0,1-.687,4.9Zm124.25-9.106a2.5,2.5,0,0,1-1.355-4.6,95.6,95.6,0,0,0,9.168-6.711,2.5,2.5,0,0,1,3.189,3.852,100.759,100.759,0,0,1-9.65,7.063A2.484,2.484,0,0,1,426.141,175.131Z"/><path class="cls-3" d="M279.813,176.723a2.492,2.492,0,0,1-.929-.18c-1.924-.771-3.81-1.56-5.6-2.346a2.5,2.5,0,0,1,2.006-4.58c1.747.765,3.583,1.534,5.458,2.285a2.5,2.5,0,0,1-.931,4.821Z"/></g></g></svg>