<svg xmlns="http://www.w3.org/2000/svg" viewBox="0 0 146.852 329"><defs><style>.cls-1{fill:#666;}.cls-2{fill:#39b54a;}</style></defs><title>breast-depths</title><g id="Layer_2" data-name="Layer 2"><g id="outline"><path class="cls-1" d="M93.489,297.785a103.068,103.068,0,0,1-52-13.811C15.124,268.522,0,242.641,0,212.968c0-43.667,31.52-69.809,64.89-97.486,29.479-24.45,59.962-49.732,72.183-89.416a5,5,0,1,1,9.557,2.943c-13.1,42.533-46.174,69.966-75.355,94.169C38.4,150.448,10,174,10,212.968,10,239,23.322,261.735,46.55,275.347c27.933,16.368,64.38,16.636,92.857.681a5,5,0,0,1,4.888,8.725A104.2,104.2,0,0,1,93.489,297.785Z"/></g><g id="markings"><path class="cls-2" d="M20.155,329a2.5,2.5,0,0,1-2.5-2.5v-12a2.5,2.5,0,0,1,5,0v12A2.5,2.5,0,0,1,20.155,329Zm0-24a2.5,2.5,0,0,1-2.5-2.5v-12a2.5,2.5,0,0,1,5,0v12A2.5,2.5,0,0,1,20.155,305Zm0-24a2.5,2.5,0,0,1-2.5-2.5v-12a2.5,2.5,0,0,1,5,0v12A2.5,2.5,0,0,1,20.155,281Zm0-24a2.5,2.5,0,0,1-2.5-2.5v-12a2.5,2.5,0,0,1,5,0v12A2.5,2.5,0,0,1,20.155,257Zm0-24a2.5,2.5,0,0,1-2.5-2.5v-12a2.5,2.5,0,0,1,5,0v12A2.5,2.5,0,0,1,20.155,233Zm0-24a2.5,2.5,0,0,1-2.5-2.5v-12a2.5,2.5,0,0,1,5,0v12A2.5,2.5,0,0,1,20.155,209Zm0-24a2.5,2.5,0,0,1-2.5-2.5v-12a2.5,2.5,0,0,1,5,0v12A2.5,2.5,0,0,1,20.155,185Zm0-24a2.5,2.5,0,0,1-2.5-2.5v-12a2.5,2.5,0,0,1,5,0v12A2.5,2.5,0,0,1,20.155,161Zm0-24a2.5,2.5,0,0,1-2.5-2.5v-12a2.5,2.5,0,0,1,5,0v12A2.5,2.5,0,0,1,20.155,137Zm0-24a2.5,2.5,0,0,1-2.5-2.5v-12a2.5,2.5,0,0,1,5,0v12A2.5,2.5,0,0,1,20.155,113Zm0-24a2.5,2.5,0,0,1-2.5-2.5v-12a2.5,2.5,0,0,1,5,0v12A2.5,2.5,0,0,1,20.155,89Zm0-24a2.5,2.5,0,0,1-2.5-2.5v-12a2.5,2.5,0,0,1,5,0v12A2.5,2.5,0,0,1,20.155,65Zm0-24a2.5,2.5,0,0,1-2.5-2.5v-12a2.5,2.5,0,0,1,5,0v12A2.5,2.5,0,0,1,20.155,41Zm0-24a2.5,2.5,0,0,1-2.5-2.5V2.5a2.5,2.5,0,0,1,5,0v12A2.5,2.5,0,0,1,20.155,17Z"/><path class="cls-2" d="M76.238,329a2.5,2.5,0,0,1-2.5-2.5v-12a2.5,2.5,0,0,1,5,0v12A2.5,2.5,0,0,1,76.238,329Zm0-24a2.5,2.5,0,0,1-2.5-2.5v-12a2.5,2.5,0,0,1,5,0v12A2.5,2.5,0,0,1,76.238,305Zm0-24a2.5,2.5,0,0,1-2.5-2.5v-12a2.5,2.5,0,0,1,5,0v12A2.5,2.5,0,0,1,76.238,281Zm0-24a2.5,2.5,0,0,1-2.5-2.5v-12a2.5,2.5,0,0,1,5,0v12A2.5,2.5,0,0,1,76.238,257Zm0-24a2.5,2.5,0,0,1-2.5-2.5v-12a2.5,2.5,0,0,1,5,0v12A2.5,2.5,0,0,1,76.238,233Zm0-24a2.5,2.5,0,0,1-2.5-2.5v-12a2.5,2.5,0,0,1,5,0v12A2.5,2.5,0,0,1,76.238,209Zm0-24a2.5,2.5,0,0,1-2.5-2.5v-12a2.5,2.5,0,0,1,5,0v12A2.5,2.5,0,0,1,76.238,185Zm0-24a2.5,2.5,0,0,1-2.5-2.5v-12a2.5,2.5,0,0,1,5,0v12A2.5,2.5,0,0,1,76.238,161Zm0-24a2.5,2.5,0,0,1-2.5-2.5v-12a2.5,2.5,0,0,1,5,0v12A2.5,2.5,0,0,1,76.238,137Zm0-24a2.5,2.5,0,0,1-2.5-2.5v-12a2.5,2.5,0,0,1,5,0v12A2.5,2.5,0,0,1,76.238,113Zm0-24a2.5,2.5,0,0,1-2.5-2.5v-12a2.5,2.5,0,0,1,5,0v12A2.5,2.5,0,0,1,76.238,89Zm0-24a2.5,2.5,0,0,1-2.5-2.5v-12a2.5,2.5,0,0,1,5,0v12A2.5,2.5,0,0,1,76.238,65Zm0-24a2.5,2.5,0,0,1-2.5-2.5v-12a2.5,2.5,0,0,1,5,0v12A2.5,2.5,0,0,1,76.238,41Zm0-24a2.5,2.5,0,0,1-2.5-2.5V2.5a2.5,2.5,0,0,1,5,0v12A2.5,2.5,0,0,1,76.238,17Z"/><path class="cls-2" d="M132.32,329a2.5,2.5,0,0,1-2.5-2.5v-12a2.5,2.5,0,0,1,5,0v12A2.5,2.5,0,0,1,132.32,329Zm0-24a2.5,2.5,0,0,1-2.5-2.5v-12a2.5,2.5,0,0,1,5,0v12A2.5,2.5,0,0,1,132.32,305Zm0-24a2.5,2.5,0,0,1-2.5-2.5v-12a2.5,2.5,0,0,1,5,0v12A2.5,2.5,0,0,1,132.32,281Zm0-24a2.5,2.5,0,0,1-2.5-2.5v-12a2.5,2.5,0,0,1,5,0v12A2.5,2.5,0,0,1,132.32,257Zm0-24a2.5,2.5,0,0,1-2.5-2.5v-12a2.5,2.5,0,0,1,5,0v12A2.5,2.5,0,0,1,132.32,233Zm0-24a2.5,2.5,0,0,1-2.5-2.5v-12a2.5,2.5,0,0,1,5,0v12A2.5,2.5,0,0,1,132.32,209Zm0-24a2.5,2.5,0,0,1-2.5-2.5v-12a2.5,2.5,0,0,1,5,0v12A2.5,2.5,0,0,1,132.32,185Zm0-24a2.5,2.5,0,0,1-2.5-2.5v-12a2.5,2.5,0,0,1,5,0v12A2.5,2.5,0,0,1,132.32,161Zm0-24a2.5,2.5,0,0,1-2.5-2.5v-12a2.5,2.5,0,0,1,5,0v12A2.5,2.5,0,0,1,132.32,137Zm0-24a2.5,2.5,0,0,1-2.5-2.5v-12a2.5,2.5,0,0,1,5,0v12A2.5,2.5,0,0,1,132.32,113Zm0-24a2.5,2.5,0,0,1-2.5-2.5v-12a2.5,2.5,0,0,1,5,0v12A2.5,2.5,0,0,1,132.32,89Zm0-24a2.5,2.5,0,0,1-2.5-2.5v-12a2.5,2.5,0,0,1,5,0v12A2.5,2.5,0,0,1,132.32,65Zm0-24a2.5,2.5,0,0,1-2.5-2.5v-12a2.5,2.5,0,0,1,5,0v12A2.5,2.5,0,0,1,132.32,41Zm0-24a2.5,2.5,0,0,1-2.5-2.5V2.5a2.5,2.5,0,0,1,5,0v12A2.5,2.5,0,0,1,132.32,17Z"/></g></g></svg>