<svg xmlns="http://www.w3.org/2000/svg" viewBox="0 0 43.47 43.47"><defs><style>.cls-1{fill:#8cf2a6;}.cls-2{fill:#43e850;}.cls-3{fill:#fff;}</style></defs><title>green-calcification</title><g id="Layer_2" data-name="Layer 2"><g id="icons"><circle class="cls-1" cx="21.735" cy="21.735" r="21.735"/><path class="cls-2" d="M31.64,28.434c1.017-1.951.108-3.088-2.019-2.526l-7.415,1.958a5.79,5.79,0,0,0-4.039,5.017l-.022.515a3.1,3.1,0,0,0,3.771,3.325l1.986-.338a9.112,9.112,0,0,0,5.792-4.218Z"/><path class="cls-3" d="M30.852,27.9c1.45-1.655.9-2.549-1.231-1.988l-7.415,1.958a5.79,5.79,0,0,0-4.039,5.017l-.022.515c-.095,2.2,1.453,3.223,3.44,2.278l.589-.28a23.159,23.159,0,0,0,6.248-4.727Z"/><path class="cls-2" d="M17.552,12.62c-.894-1.586-2.687-1.43-3.985.347L9.02,19.192c-1.3,1.777-.59,3.561,1.572,3.967l3.679.689a3.65,3.65,0,0,0,4.359-3.241l.121-1.127A13.5,13.5,0,0,0,17.552,12.62Z"/><path class="cls-3" d="M17.552,12.62c-.894-1.586-2.687-1.43-3.985.347L9.02,19.192c-1.3,1.777-.574,3,1.608,2.719l.654-.084a9.542,9.542,0,0,0,5.931-3.418A6.058,6.058,0,0,0,17.552,12.62Z"/><path class="cls-2" d="M29.653,8.947c1.687-1.412,3.327-.785,3.643,1.392l1.1,7.559A3.922,3.922,0,0,1,31,22.357l-2.551.322a4.411,4.411,0,0,1-4.778-3.417l-.126-.61A7.381,7.381,0,0,1,25.8,12.168Z"/><path class="cls-3" d="M29.653,8.947c1.687-1.412,3.015-.767,2.951,1.432l-.127,4.337a7.9,7.9,0,0,1-3.6,5.97l-.919.521a2.746,2.746,0,0,1-4.29-1.945l-.126-.61A7.381,7.381,0,0,1,25.8,12.168Z"/></g></g></svg>