<svg xmlns="http://www.w3.org/2000/svg" viewBox="0 0 43.47 43.47"><defs><style>.cls-1{fill:#f0c277;}.cls-2{fill:#ebab43;}.cls-3{fill:#fff;}</style></defs><title>yellow-calcification</title><g id="Layer_2" data-name="Layer 2"><g id="icons"><circle class="cls-1" cx="21.735" cy="21.735" r="21.735"/><polygon class="cls-2" points="32.666 25.849 18.512 29.585 18.17 37.534 27.394 35.964 32.666 25.849"/><polygon class="cls-3" points="32.666 25.849 18.512 29.585 18.17 37.534 25.47 34.062 32.666 25.849"/><polygon class="cls-2" points="15.133 10.569 6.476 22.42 17.259 24.44 18.17 15.956 15.133 10.569"/><polygon class="cls-3" points="15.133 10.569 6.476 22.42 14.5 21.387 18.17 15.956 15.133 10.569"/><polygon class="cls-2" points="32.065 7.625 34.164 22.083 24.365 23.319 22.735 15.429 32.065 7.625"/><polygon class="cls-3" points="32.065 7.625 31.727 19.147 24.365 23.319 22.735 15.429 32.065 7.625"/></g></g></svg>