<svg xmlns="http://www.w3.org/2000/svg" viewBox="0 0 43.47 43.47"><defs><style>.cls-1{fill:#f0c277;}.cls-2{fill:#ebab43;}.cls-3{fill:#fff;}</style></defs><title>yellow-mass</title><g id="Layer_2" data-name="Layer 2"><g id="icons"><circle class="cls-1" cx="21.735" cy="21.735" r="21.735"/><path class="cls-2" d="M14.139,34.8a5.4,5.4,0,0,1-4.577-2.151c-1.342-1.894-1.183-4.662.4-7.055a19.266,19.266,0,0,1,1.8-2.222,15.478,15.478,0,0,0,1.511-1.862,1.482,1.482,0,0,0,.224-.428,8.953,8.953,0,0,0-1.248-.831,12.744,12.744,0,0,1-1.414-.944,3.342,3.342,0,0,1-1.393-2.732,3.544,3.544,0,0,1,.518-1.609A10.5,10.5,0,0,1,13.3,11.69a9.284,9.284,0,0,0,2.1-1.813,4.643,4.643,0,0,1,3.654-2.225,4.456,4.456,0,0,1,1.224.181A4.173,4.173,0,0,1,23.533,6.38a4.844,4.844,0,0,1,2.052.456A7.018,7.018,0,0,1,28.7,10.055l.1.181a3.772,3.772,0,0,0,.37.615s0,0,.005,0c.023,0,.113.021.3.047.456.065.919.1,1.38.135a11.542,11.542,0,0,1,3.966.8A5.551,5.551,0,0,1,37.8,15.187a3.972,3.972,0,0,1-.409,3.315,5.833,5.833,0,0,1-3.031,2.137c-.152.06-.3.12-.45.182a7.614,7.614,0,0,0-3.742,3.472c.083.026.167.058.255.1A2.664,2.664,0,0,1,31.973,26.2a4.464,4.464,0,0,1-.96,3.631c-1.577,2.049-3.253,3.088-4.983,3.088a4.265,4.265,0,0,1-.892-.095,6.073,6.073,0,0,1-3-1.893A9.9,9.9,0,0,1,18.129,33.9,10.108,10.108,0,0,1,14.139,34.8Z"/><path class="cls-3" d="M17.393,11.044c-1.346,1.818-3.8,2.557-4.909,4.525a1.626,1.626,0,0,0-.257.711,1.446,1.446,0,0,0,.643,1.109c1.188.952,3.148,1.532,3.1,3.054a2.528,2.528,0,0,1-.479,1.256c-.883,1.367-2.169,2.433-3.068,3.789s-1.345,3.242-.4,4.569c1.222,1.724,3.879,1.438,5.81.58a6.464,6.464,0,0,0,3.546-3.109.791.791,0,0,1,.275-.412.669.669,0,0,1,.685.139c1.048.73,1.777,2.008,3.026,2.276,1.473.316,2.784-.938,3.7-2.131.568-.737.985-2.03.131-2.4-.306-.132-.67-.06-.974-.2-.682-.3-.564-1.312-.245-1.988a8.748,8.748,0,0,1,4.449-4.275,4.856,4.856,0,0,0,2.433-1.479c.812-1.282-.242-3.045-1.626-3.668s-2.97-.52-4.472-.733a2.5,2.5,0,0,1-.944-.281A3.29,3.29,0,0,1,26.775,11a4.94,4.94,0,0,0-2.1-2.232,2.414,2.414,0,0,0-2.85.474c-.22.272-.39.626-.722.735a1.714,1.714,0,0,1-1-.174C18.861,9.422,18.167,10,17.393,11.044Z"/></g></g></svg>