<svg xmlns="http://www.w3.org/2000/svg" viewBox="0 0 43.47 43.47"><defs><style>.cls-1{fill:#8cf2a6;}.cls-2{fill:#43e850;}.cls-3{fill:#fff;}</style></defs><title>green-mass</title><g id="Layer_2" data-name="Layer 2"><g id="icons"><circle class="cls-1" cx="21.735" cy="21.735" r="21.735"/><path class="cls-2" d="M24.928,7.655c-8.516-.783-12.952,13.693-13.438,22.231a6.178,6.178,0,0,0,.877,4.173c1.115,1.444,3.146,1.769,4.97,1.784a14.1,14.1,0,0,0,8.71-2.433c4.126-3.143,5.045-8.874,5.643-14.026a19.736,19.736,0,0,0-.1-7.541C30.913,9.4,27.9,7.929,24.928,7.655Z"/><path class="cls-3" d="M23.982,10.651c-5.835-.537-8.873,9.381-9.207,15.231a4.232,4.232,0,0,0,.6,2.859,4.22,4.22,0,0,0,3.405,1.222A9.663,9.663,0,0,0,24.748,28.3c2.827-2.153,3.457-6.079,3.866-9.609a13.522,13.522,0,0,0-.069-5.167C28.082,11.849,26.019,10.838,23.982,10.651Z"/></g></g></svg>