<svg xmlns="http://www.w3.org/2000/svg" viewBox="0 0 43.47 43.47"><defs><style>.cls-1{fill:#f0c277;}.cls-2{fill:#fff;}</style></defs><title>yellow-asymmetry</title><g id="Layer_2" data-name="Layer 2"><g id="icons"><circle class="cls-1" cx="21.735" cy="21.735" r="21.735"/><path class="cls-2" d="M17.921,13.31a24.418,24.418,0,0,0-5.827,5.329,14.623,14.623,0,0,0-2.409,9.733A12.612,12.612,0,0,0,14.649,37a13.807,13.807,0,0,0,11.695,1.789,20.658,20.658,0,0,0,9.975-6.776,11.5,11.5,0,0,0,3.065-6.4,10.214,10.214,0,0,0-.992-4.744A16.187,16.187,0,0,0,30.2,12.546,12.644,12.644,0,0,0,17.921,13.31Z"/><path class="cls-1" d="M30.9,19.389a12.029,12.029,0,0,1,3.022,2.784,7.675,7.675,0,0,1,1.139,5.2A7.28,7.28,0,0,1,32.3,32.095a7.451,7.451,0,0,1-6.246,1.134,10.2,10.2,0,0,1-5.207-3.5,5.857,5.857,0,0,1-1.536-3.4,5.745,5.745,0,0,1,.6-2.569,9.369,9.369,0,0,1,4.476-4.6A6.609,6.609,0,0,1,30.9,19.389Z"/></g></g></svg>