<svg xmlns="http://www.w3.org/2000/svg" viewBox="0 0 188.367 34.464"><defs><style>.cls-1{fill:#fff;}</style></defs><title>scanslated-logo-white</title><g id="Layer_2" data-name="Layer 2"><g id="Layer_1-2" data-name="Layer 1"><polygon class="cls-1" points="76.536 2.608 81.754 2.608 81.754 7.826 84.362 10.434 84.362 0 73.928 0 76.536 2.608"/><polygon class="cls-1" points="2.608 7.793 2.608 2.608 7.794 2.608 10.401 0 0 0 0 10.401 2.608 7.793"/><polygon class="cls-1" points="81.754 26.623 81.754 31.857 76.52 31.857 73.913 34.464 84.362 34.464 84.362 24.015 81.754 26.623"/><polygon class="cls-1" points="7.794 31.857 2.608 31.857 2.608 26.671 0 24.063 0 34.464 10.401 34.464 7.794 31.857"/></g><g id="text"><path class="cls-1" d="M14.772,22.943a4.951,4.951,0,0,0-.115-1.123,2.218,2.218,0,0,0-.486-.933,4.286,4.286,0,0,0-1.057-.85,13.435,13.435,0,0,0-1.824-.875,21.475,21.475,0,0,1-2.583-1.172,9.671,9.671,0,0,1-2.162-1.56,6.98,6.98,0,0,1-1.486-2.08A6.42,6.42,0,0,1,4.506,11.6a6.618,6.618,0,0,1,.562-2.748A6.028,6.028,0,0,1,6.644,6.734a7.355,7.355,0,0,1,2.41-1.362,9.285,9.285,0,0,1,3.078-.487,8.424,8.424,0,0,1,3.128.553,6.927,6.927,0,0,1,2.377,1.535,6.707,6.707,0,0,1,1.511,2.344,8.231,8.231,0,0,1,.527,3H14.839a5.823,5.823,0,0,0-.157-1.4,3.006,3.006,0,0,0-.5-1.089,2.326,2.326,0,0,0-.866-.71,2.894,2.894,0,0,0-1.271-.256,3.041,3.041,0,0,0-1.2.215,2.3,2.3,0,0,0-.833.586,2.417,2.417,0,0,0-.5.883,3.516,3.516,0,0,0-.165,1.089,2.246,2.246,0,0,0,.255,1.073,3.2,3.2,0,0,0,.727.891,6.2,6.2,0,0,0,1.139.776q.669.363,1.478.71A17.476,17.476,0,0,1,15.9,16.44a8.779,8.779,0,0,1,2.1,1.684,6.242,6.242,0,0,1,1.255,2.121,8.062,8.062,0,0,1,.413,2.666,7.233,7.233,0,0,1-.521,2.823,5.661,5.661,0,0,1-1.485,2.088,6.644,6.644,0,0,1-2.336,1.3,9.783,9.783,0,0,1-3.087.454,10.085,10.085,0,0,1-3.045-.47A7.788,7.788,0,0,1,6.52,27.664,7.243,7.243,0,0,1,4.63,25.2a8.046,8.046,0,0,1-.718-3.532H8.781A6.858,6.858,0,0,0,9,23.521a2.947,2.947,0,0,0,.651,1.229,2.48,2.48,0,0,0,1.081.677,4.928,4.928,0,0,0,1.5.207,3.017,3.017,0,0,0,1.181-.207,2.03,2.03,0,0,0,1.229-1.411A4.158,4.158,0,0,0,14.772,22.943Z"/><path class="cls-1" d="M39.169,21.243a8.99,8.99,0,0,1-2.311,6.223,8.163,8.163,0,0,1-6.009,2.113,9.121,9.121,0,0,1-3.565-.66,6.766,6.766,0,0,1-2.641-1.964A9.053,9.053,0,0,1,23,23.727a15.663,15.663,0,0,1-.569-4.432V15.2a15.313,15.313,0,0,1,.586-4.44A8.949,8.949,0,0,1,24.71,7.526a7.117,7.117,0,0,1,2.674-1.972,8.921,8.921,0,0,1,3.532-.668,7.747,7.747,0,0,1,5.967,2.2A9.982,9.982,0,0,1,39.2,13.386H34.333a11.787,11.787,0,0,0-.223-2.154,3.442,3.442,0,0,0-.586-1.378,2.141,2.141,0,0,0-1.032-.727,5,5,0,0,0-1.576-.214,3.8,3.8,0,0,0-1.659.33,2.594,2.594,0,0,0-1.114,1.064,5.785,5.785,0,0,0-.635,1.931,17.588,17.588,0,0,0-.207,2.93V19.3a21.4,21.4,0,0,0,.165,2.872,5.659,5.659,0,0,0,.578,1.939,2.578,2.578,0,0,0,1.09,1.1,3.747,3.747,0,0,0,1.716.347,5.384,5.384,0,0,0,1.527-.19,2.174,2.174,0,0,0,1.048-.668,3.2,3.2,0,0,0,.627-1.32,10.43,10.43,0,0,0,.265-2.129Z"/><path class="cls-1" d="M53.629,24.33H47.01l-1.288,4.919H40.589L48.1,5.216h4.44L60.1,29.249H54.916Zm-5.562-4.044h4.489l-2.245-8.566Z"/><path class="cls-1" d="M79.146,29.249H74.294L67.2,13.485V29.249H62.344V5.216H67.2L74.311,21V5.216h4.836Z"/><path class="cls-1" d="M98.656,23.174a5.248,5.248,0,0,0-.189-1.485,2.888,2.888,0,0,0-.7-1.18A5.526,5.526,0,0,0,96.378,19.5a16.813,16.813,0,0,0-2.262-.965,17.9,17.9,0,0,1-2.69-1.164,8.8,8.8,0,0,1-2.055-1.5,6.069,6.069,0,0,1-1.312-1.939,6.338,6.338,0,0,1-.462-2.492,6.822,6.822,0,0,1,.487-2.6,6.1,6.1,0,0,1,1.386-2.08,6.33,6.33,0,0,1,2.179-1.378,7.833,7.833,0,0,1,2.848-.5,7.421,7.421,0,0,1,3.095.61,6.825,6.825,0,0,1,2.262,1.618,6.714,6.714,0,0,1,1.378,2.328,8.173,8.173,0,0,1,.462,2.723H98.656a6.905,6.905,0,0,0-.239-1.865,4.034,4.034,0,0,0-.751-1.485,3.431,3.431,0,0,0-1.295-.974,5.224,5.224,0,0,0-3.607-.05,3.151,3.151,0,0,0-1.89,2.047,5.161,5.161,0,0,0-.223,1.552,3.347,3.347,0,0,0,1.089,2.542,9.658,9.658,0,0,0,3.367,1.833,17.3,17.3,0,0,1,3,1.279,7.946,7.946,0,0,1,2.055,1.593,5.659,5.659,0,0,1,1.172,2,7.85,7.85,0,0,1,.371,2.509,6.85,6.85,0,0,1-.5,2.658,5.689,5.689,0,0,1-1.411,2.03,6.282,6.282,0,0,1-2.22,1.3,8.9,8.9,0,0,1-2.938.454,8.761,8.761,0,0,1-2.8-.462,7.4,7.4,0,0,1-2.459-1.378,6.947,6.947,0,0,1-1.75-2.286,7.146,7.146,0,0,1-.668-3.169h3.037a5.564,5.564,0,0,0,.363,2.121,3.9,3.9,0,0,0,2.476,2.311,5.81,5.81,0,0,0,1.8.272,4.034,4.034,0,0,0,3-1.023A3.8,3.8,0,0,0,98.656,23.174Z"/><path class="cls-1" d="M108.708,26.657h9.425v2.591H105.671V5.216h3.037Z"/><path class="cls-1" d="M133.252,22.976h-8.121l-1.865,6.272h-3.1L127.9,5.216H130.5l7.758,24.033h-3.1Zm-7.328-2.608h6.553L129.192,9.441Z"/><path class="cls-1" d="M153.44,7.824h-6.321V29.249H144.1V7.824h-6.306V5.216H153.44Z"/><path class="cls-1" d="M168.509,18.14h-8.5v8.517h9.9v2.591H156.989V5.216h12.759V7.824h-9.738v7.725h8.5Z"/><path class="cls-1" d="M173.776,29.249V5.216H179.5a10.047,10.047,0,0,1,3.664.635,7.326,7.326,0,0,1,2.79,1.9,8.641,8.641,0,0,1,1.782,3.136,13.649,13.649,0,0,1,.627,4.333v4.061a13.575,13.575,0,0,1-.627,4.325,8.426,8.426,0,0,1-1.8,3.12,7.432,7.432,0,0,1-2.872,1.89,10.939,10.939,0,0,1-3.847.635ZM176.8,7.824V26.657h2.426a5.6,5.6,0,0,0,4.688-1.865,8.791,8.791,0,0,0,1.469-5.513v-4.11q0-3.8-1.461-5.571A5.386,5.386,0,0,0,179.5,7.824Z"/></g></g></svg>